<?xml version="1.0" encoding="UTF-8" standalone="no"?>
<svg
   width="64"
   height="64"
   version="1.1"
   id="svg10"
   xmlns="http://www.w3.org/2000/svg"
   xmlns:svg="http://www.w3.org/2000/svg">
  <defs
     id="defs2" />
  <g
     id="g8">
    <path
       stroke="none"
       fill="#ffffff"
       d="M 52.75,34.05 53,32 V 16 c 0,-3.333333 -1.666667,-5 -5,-5 H 16 c -3.333333,0 -5,1.666667 -5,5 v 16 c 0,3.333333 1.666667,5 5,5 h 10.9 l 0.4,1.55 c -1.366667,0.1 -2.55,0.583333 -3.55,1.45 H 16 C 10.666667,40 8,37.333333 8,32 V 16 c 0,-5.333333 2.666667,-8 8,-8 h 32 c 5.333333,0 8,2.666667 8,8 v 16 c 0,2.666667 -0.65,4.666667 -1.95,6 l -0.55,-1.95 -0.75,-2 M 45.302831,30.188674 45.55,33.25 c 1.3,-0.06667 2.366667,0.15 3.2,0.65 l 1.25,1.4 0.55,1.25 0.05,0.3 1.5,5.55 c 0.466667,1.866667 0.383333,3.683333 -0.25,5.45 L 51,49.7 c -1.366667,2.4 -3.366667,3.966667 -6,4.7 -2.666667,0.7 -5.216667,0.35 -7.65,-1.05 L 36.2,52.6 C 34.8,51.4 33.183333,50.533333 31.35,50 L 28.3,49.7 c -1.066667,0.06667 -2,-0.3 -2.8,-1.1 -0.866667,-0.766667 -1.333333,-1.716667 -1.4,-2.85 -0.03333,-1.133333 0.316667,-2.133333 1.05,-3 0.7,-0.8 1.583333,-1.216667 2.65,-1.25 L 31.25,41.75 28.1,29.9 c -0.3,-1.066667 -0.183333,-2.083333 0.35,-3.05 l 0.45,-0.5 c 0.466667,-0.6 1.1,-1.033333 1.9,-1.3 l 0.25,-0.05 2.25,0.15 0.6,0.25 c 0.966667,0.566667 1.6,1.383333 1.9,2.45 l 1.598984,3.434261 c -0.251016,-3.432405 0.19083,-5.127256 0.724163,-6.093923 l 0.45,-0.5 c 0.466667,-0.6 1.1,-1.033333 1.9,-1.3 l 0.25,-0.05 2.25,0.15 0.6,0.25 c 0.966667,0.566667 1.6,1.383333 1.9,2.45"
       id="path4" />
    <path
       stroke="none"
       fill="#FFFFFF"
       fill-opacity="0"
       d="M37.35 33.65 L35.8 27.85 Q35.35 26.25 33.9 25.4 L33.3 25.15 31.05 25 30.8 25.05 Q29.6 25.45 28.9 26.35 L28.45 26.85 Q27.65 28.3 28.1 29.9 L31.25 41.75 27.8 41.5 Q26.2 41.55 25.15 42.75 24.05 44.05 24.1 45.75 24.2 47.45 25.5 48.6 26.7 49.8 28.3 49.7 L31.35 50 Q34.1 50.8 36.2 52.6 L37.35 53.35 Q41 55.45 45 54.4 48.95 53.3 51 49.7 L51.85 47.85 Q52.8 45.2 52.1 42.4 L50.6 36.85 50.55 36.55 50 35.3 48.75 33.9 Q47.5 33.15 45.55 33.25 L37.35 33.65 M52.75 34.05 L53.5 36.05 54.05 38 55 41.6 55.05 41.7 Q55.9 45.4 54.75 48.85 L54.75 48.8 53.65 51.25 Q50.9 55.9 45.75 57.3 40.55 58.7 35.85 56 L35.8 55.95 34.35 54.95 34.2 54.85 Q32.65 53.45 30.55 52.9 L30.6 52.85 28.5 52.7 28.45 52.7 Q25.6 52.85 23.45 50.8 21.3 48.8 21.15 45.9 21 43 22.9 40.85 L22.9 40.8 23.75 40 Q25.25 38.7 27.3 38.55 L26.9 37 25.2 30.7 Q24.45 27.95 25.8 25.5 L25.85 25.4 Q26.15 24.85 26.6 24.35 L26.65 24.3 Q27.95 22.85 29.9 22.2 L30 22.15 30.25 22.1 30.4 22.05 34.3 22.3 34.5 22.35 35.45 22.85 Q37.95 24.25 38.7 27.05 L39.6 30.55 45.4 30.25 Q48.35 30.1 50.35 31.35 L50.45 31.4 Q51.75 32.35 52.6 33.8 L52.75 34.05"
       id="path6" />
  </g>
</svg>
